<svg width="116" height="116" viewBox="0 0 116 116" fill="none" xmlns="http://www.w3.org/2000/svg">
<mask id="mask0_1328_36356" style="mask-type:luminance" maskUnits="userSpaceOnUse" x="0" y="0" width="116" height="116">
<path d="M115.295 0H0V115.295H115.295V0Z" fill="white"/>
</mask>
<g mask="url(#mask0_1328_36356)">
<mask id="mask1_1328_36356" style="mask-type:luminance" maskUnits="userSpaceOnUse" x="56" y="66" width="5" height="6">
<path d="M58.1389 71.1847C59.2463 71.1847 60.144 70.0625 60.144 68.6783C60.144 67.294 59.2463 66.1719 58.1389 66.1719C57.0315 66.1719 56.1338 67.294 56.1338 68.6783C56.1338 70.0625 57.0315 71.1847 58.1389 71.1847Z" fill="white"/>
</mask>
<g mask="url(#mask1_1328_36356)">
<path d="M60.1441 68.6817H57.9141C57.9141 68.9029 57.8405 69.0296 57.8154 69.0609C57.8053 69.0735 57.8204 69.0497 57.8771 69.0197C57.9385 68.9873 58.0306 68.9581 58.1389 68.9581V71.1881V73.4181C60.9166 73.4181 62.3741 70.8075 62.3741 68.6817H60.1441ZM58.1389 71.1881V68.9581C58.2473 68.9581 58.3394 68.9873 58.4007 69.0197C58.4574 69.0497 58.4725 69.0735 58.4624 69.0609C58.4374 69.0296 58.3638 68.9029 58.3638 68.6817H56.1338H53.9038C53.9038 70.8075 55.3613 73.4181 58.1389 73.4181V71.1881ZM56.1338 68.6817H58.3638C58.3638 68.4604 58.4374 68.3338 58.4624 68.3025C58.4725 68.2898 58.4574 68.3137 58.4007 68.3437C58.3394 68.3761 58.2473 68.4053 58.1389 68.4053V66.1753V63.9453C55.3613 63.9453 53.9038 66.5559 53.9038 68.6817H56.1338ZM58.1389 66.1753V68.4053C58.0306 68.4053 57.9385 68.3761 57.8771 68.3437C57.8204 68.3137 57.8053 68.2898 57.8154 68.3025C57.8405 68.3338 57.9141 68.4604 57.9141 68.6817H60.1441H62.3741C62.3741 66.5559 60.9166 63.9453 58.1389 63.9453V66.1753Z" fill="#9B374A"/>
</g>
</g>
</svg>
