<svg width="115" height="115" viewBox="0 0 115 115" fill="none" xmlns="http://www.w3.org/2000/svg">
<mask id="mask0_1328_36198" style="mask-type:luminance" maskUnits="userSpaceOnUse" x="0" y="0" width="115" height="115">
<path d="M114.292 0H0V114.292H114.292V0Z" fill="white"/>
</mask>
<g mask="url(#mask0_1328_36198)">
<path d="M47.5036 30.0692C48.3177 30.2106 48.863 30.9852 48.7216 31.7993L45.9295 47.8741C45.7881 48.6881 45.0136 49.2335 44.1995 49.0921C43.3854 48.9507 42.8401 48.1761 42.9815 47.362L45.7735 31.2872C45.9149 30.4731 46.6895 29.9278 47.5036 30.0692Z" fill="#192D54"/>
<path d="M48.9183 46.7255L47.4439 30.2261C47.4439 30.2261 40.5633 47.7567 38.5975 48.2723C36.6316 48.7879 35.2761 49.3035 35.2761 49.3035C33.7034 51.3659 34.2931 75.5993 34.7846 87.4582C32.3273 84.8802 24.8364 63.7404 24.8364 53.9439C24.8364 46.1067 29.7511 31.474 32.2084 26.8336L59.2391 18.8828L82.4795 25.3428L91.1843 46.7255C93.1502 71.9901 80.5124 87.3125 81.9868 83.7033C83.1664 80.8159 82.1507 60.5011 81.4954 50.189C81.4954 50.189 79.8806 48.2723 77.9148 47.2411C75.9489 46.2098 69.0684 31.7729 69.0684 31.7729C69.0684 31.7729 69.5598 45.6942 69.5598 46.7255C69.5598 47.7567 69.5598 48.2723 68.0854 48.2723H65.6281C65.1366 48.2723 64.1537 42.6006 64.1537 42.6006C64.1537 42.6006 64.1537 48.2723 63.1708 48.2723H49.9012C48.9183 48.2723 48.9183 46.7255 48.9183 46.7255Z" fill="#192D54"/>
<path d="M69.5432 28.1356C70.3234 27.964 71.095 28.4574 71.2666 29.2376L75.2853 47.508C75.4569 48.2882 74.9635 49.0598 74.1833 49.2314C73.4031 49.403 72.6315 48.9097 72.4599 48.1295L68.4413 29.859C68.2697 29.0788 68.763 28.3073 69.5432 28.1356Z" fill="#192D54"/>
<path d="M34.7845 41.82C46.1034 31.3658 59.484 30.2056 61.1215 25.4214C61.7637 22.3069 61.2328 12.438 47.2077 15.4819C26.3369 20.0116 23.8523 37.8476 23.8523 49.7722C23.8523 60.3414 27.8939 61.6968 28.8216 68.6537C27.8277 61.1999 27.8491 48.2257 34.7845 41.82Z" fill="#192D54"/>
<path d="M82.1701 41.82C70.8513 31.3658 57.4707 30.2056 55.8331 25.4214C55.191 22.3069 55.7219 12.438 69.747 15.4819C90.6178 20.0116 93.1024 37.8476 93.1024 49.7722C93.1024 60.3414 89.0607 61.6968 88.1331 68.6537C89.127 61.1999 89.1056 48.2257 82.1701 41.82Z" fill="#192D54"/>
<path d="M82.9861 36.7713C90.3961 36.7713 96.403 30.7644 96.403 23.3544C96.403 15.9445 90.3961 9.9375 82.9861 9.9375C75.5762 9.9375 69.5692 15.9445 69.5692 23.3544C69.5692 30.7644 75.5762 36.7713 82.9861 36.7713Z" fill="#192D54"/>
<path d="M30.3123 36.7713C37.7222 36.7713 43.7292 30.7644 43.7292 23.3544C43.7292 15.9445 37.7222 9.9375 30.3123 9.9375C22.9023 9.9375 16.8954 15.9445 16.8954 23.3544C16.8954 30.7644 22.9023 36.7713 30.3123 36.7713Z" fill="#192D54"/>
</g>
</svg>
