<svg width="115" height="115" viewBox="0 0 115 115" fill="none" xmlns="http://www.w3.org/2000/svg">
<mask id="mask0_1328_36210" style="mask-type:luminance" maskUnits="userSpaceOnUse" x="0" y="0" width="115" height="115">
<path d="M114.292 0H0V114.292H114.292V0Z" fill="white"/>
</mask>
<g mask="url(#mask0_1328_36210)">
<path d="M47.5036 30.077C48.3177 30.2184 48.863 30.993 48.7216 31.8071L45.9295 47.8819C45.7881 48.696 45.0136 49.2413 44.1995 49.0999C43.3854 48.9585 42.8401 48.1839 42.9815 47.3698L45.7735 31.295C45.9149 30.4809 46.6895 29.9356 47.5036 30.077Z" fill="#192D54"/>
<path d="M48.9183 46.7333L47.4439 30.2339C47.4439 30.2339 40.5633 47.7645 38.5975 48.2801C36.6316 48.7957 35.2761 49.3113 35.2761 49.3113C33.7034 51.3737 34.2931 75.6071 34.7846 87.466C32.3273 84.888 24.8364 63.7482 24.8364 53.9517C24.8364 46.1145 29.7511 31.4818 32.2084 26.8414L59.2391 18.8906L82.4795 25.3506L91.1843 46.7333C93.1502 71.9979 80.5124 87.3203 81.9868 83.7111C83.1664 80.8237 82.1507 60.5089 81.4954 50.1968C81.4954 50.1968 79.8806 48.2801 77.9148 47.2489C75.9489 46.2177 69.0684 31.7807 69.0684 31.7807C69.0684 31.7807 69.5598 45.7021 69.5598 46.7333C69.5598 47.7645 69.5598 48.2801 68.0854 48.2801H65.6281C65.1366 48.2801 64.1537 42.6084 64.1537 42.6084C64.1537 42.6084 64.1537 48.2801 63.1708 48.2801H49.9012C48.9183 48.2801 48.9183 46.7333 48.9183 46.7333Z" fill="#192D54"/>
<path d="M69.5432 28.1435C70.3234 27.9719 71.095 28.4652 71.2666 29.2454L75.2853 47.5158C75.4569 48.296 74.9635 49.0676 74.1833 49.2392C73.4031 49.4108 72.6315 48.9175 72.4599 48.1373L68.4413 29.8668C68.2697 29.0867 68.763 28.3151 69.5432 28.1435Z" fill="#192D54"/>
<path d="M34.7845 41.8279C46.1034 31.3736 59.484 30.2134 61.1215 25.4292C61.7637 22.3147 61.2328 12.4458 47.2077 15.4897C26.3369 20.0194 23.8523 37.8554 23.8523 49.78C23.8523 60.3492 27.8939 61.7046 28.8216 68.6616C27.8277 61.2077 27.8491 48.2335 34.7845 41.8279Z" fill="#192D54"/>
<path d="M82.1701 41.8279C70.8513 31.3736 57.4707 30.2134 55.8331 25.4292C55.191 22.3147 55.7219 12.4458 69.747 15.4897C90.6178 20.0194 93.1024 37.8554 93.1024 49.78C93.1024 60.3492 89.0607 61.7046 88.1331 68.6616C89.127 61.2077 89.1056 48.2335 82.1701 41.8279Z" fill="#192D54"/>
<path d="M58.14 29.8182C65.55 29.8182 71.5569 23.8112 71.5569 16.4013C71.5569 8.99133 65.55 2.98438 58.14 2.98438C50.7301 2.98438 44.7231 8.99133 44.7231 16.4013C44.7231 23.8112 50.7301 29.8182 58.14 29.8182Z" fill="#192D54"/>
</g>
</svg>
