<svg width="115" height="115" viewBox="0 0 115 115" fill="none" xmlns="http://www.w3.org/2000/svg">
<mask id="mask0_1328_36221" style="mask-type:luminance" maskUnits="userSpaceOnUse" x="0" y="0" width="115" height="115">
<path d="M114.292 0H0V114.292H114.292V0Z" fill="white"/>
</mask>
<g mask="url(#mask0_1328_36221)">
<path d="M17.5792 67.9753C19.4645 69.5874 21.91 70.5632 24.585 70.5632C26.8838 70.5631 29.0125 69.8413 30.7628 68.6159C32.369 71.1141 34.3245 73.3695 36.5587 75.3171C31.3111 88.5159 26.2783 98.6751 23.4942 98.1316C20.3232 97.5115 18.232 84.0917 17.5792 67.9753ZM23.2042 13.5075C28.3639 5.34497 37.1218 2.4695 44.4395 3.89817C51.757 5.32686 56.5311 12.4175 55.1026 19.7351C55.0556 19.9756 54.9836 20.2864 54.8917 20.6628C39.5537 21.8306 27.2927 33.8991 25.959 49.0759C25.509 49.0187 25.0506 48.9861 24.585 48.9861C21.8304 48.9861 19.3179 50.0203 17.4112 51.7195C17.7281 35.2219 19.545 19.2963 23.2042 13.5075Z" fill="#192D54"/>
<path d="M47.5037 30.0692C48.3178 30.2106 48.8631 30.9852 48.7217 31.7993L45.9296 47.8741C45.7882 48.6881 45.0137 49.2335 44.1996 49.0921C43.3855 48.9507 42.8402 48.1761 42.9816 47.362L45.7736 31.2872C45.915 30.4731 46.6896 29.9278 47.5037 30.0692Z" fill="#192D54"/>
<path d="M48.9183 46.7255L47.4439 30.2261C47.4439 30.2261 40.5633 47.7567 38.5975 48.2723C36.6316 48.7879 35.2761 49.3035 35.2761 49.3035C33.7034 51.3659 34.2931 75.5993 34.7846 87.4582C32.3273 84.8802 24.8364 63.7404 24.8364 53.9439C24.8364 46.1067 29.7511 31.474 32.2084 26.8336L59.2391 18.8828L82.4795 25.3428L91.1843 46.7255C93.1502 71.9901 80.5124 87.3125 81.9868 83.7033C83.1664 80.8159 82.1507 60.5011 81.4954 50.189C81.4954 50.189 79.8806 48.2723 77.9148 47.2411C75.9489 46.2098 69.0684 31.7729 69.0684 31.7729C69.0684 31.7729 69.5598 45.6942 69.5598 46.7255C69.5598 47.7567 69.5598 48.2723 68.0854 48.2723H65.6281C65.1366 48.2723 64.1537 42.6006 64.1537 42.6006C64.1537 42.6006 64.1537 48.2723 63.1708 48.2723H49.9012C48.9183 48.2723 48.9183 46.7255 48.9183 46.7255Z" fill="#192D54"/>
<path d="M69.5432 28.1356C70.3234 27.964 71.095 28.4574 71.2666 29.2376L75.2853 47.508C75.4569 48.2882 74.9635 49.0598 74.1833 49.2314C73.4031 49.403 72.6315 48.9097 72.4599 48.1295L68.4413 29.859C68.2697 29.0788 68.763 28.3073 69.5432 28.1356Z" fill="#192D54"/>
<path d="M34.7845 41.82C46.1034 31.3658 59.484 30.2056 61.1215 25.4214C61.7637 22.3069 61.2328 12.438 47.2077 15.4819C26.3369 20.0116 23.8523 37.8476 23.8523 49.7722C23.8523 60.3414 27.8939 61.6968 28.8216 68.6537C27.8277 61.1999 27.8491 48.2257 34.7845 41.82Z" fill="#192D54"/>
<path d="M82.1702 41.82C70.8514 31.3658 57.4708 30.2056 55.8332 25.4214C55.1911 22.3069 55.722 12.438 69.7471 15.4819C90.6179 20.0116 93.1025 37.8476 93.1025 49.7722C93.1025 60.3414 89.0608 61.6968 88.1332 68.6537C89.1271 61.1999 89.1057 48.2257 82.1702 41.82Z" fill="#192D54"/>
</g>
</svg>
