<svg width="115" height="115" viewBox="0 0 115 115" fill="none" xmlns="http://www.w3.org/2000/svg">
<ellipse cx="24.7369" cy="60.1444" rx="10.8553" ry="10.8553" fill="#EBA0AA"/>
<ellipse cx="90.2567" cy="60.2381" rx="10.8553" ry="10.8553" fill="#EBA0AA"/>
<path d="M95.3127 60.0769C95.3274 60.8456 94.7162 61.4807 93.9475 61.4954L89.5697 61.5792C88.801 61.594 88.166 60.9827 88.1512 60.214V60.214C88.1365 59.4454 88.7477 58.8103 89.5164 58.7955L93.8942 58.7117C94.6629 58.697 95.298 59.3082 95.3127 60.0769V60.0769Z" fill="#D75249"/>
<path d="M25.9162 60.0769C25.9309 60.8456 25.3197 61.4807 24.551 61.4954L20.1733 61.5792C19.4046 61.594 18.7695 60.9827 18.7548 60.214V60.214C18.74 59.4454 19.3513 58.8103 20.12 58.7955L24.4977 58.7117C25.2664 58.697 25.9015 59.3082 25.9162 60.0769V60.0769Z" fill="#D75249"/>
<ellipse cx="57.6902" cy="52.1466" rx="31.6936" ry="31.4513" fill="#F6C8C8"/>
<circle cx="45.9148" cy="61.5393" r="6.92995" fill="#FFA9AA"/>
<circle cx="70.0481" cy="61.5393" r="6.92995" fill="#FFA9AA"/>
<circle cx="57.6904" cy="61.5918" r="2.32614" fill="#D75249"/>
</svg>
