<svg width="115" height="115" viewBox="0 0 115 115" fill="none" xmlns="http://www.w3.org/2000/svg">
<path d="M51.6943 58.4146C53.3434 58.4146 54.6804 56.8405 54.6804 54.8987C54.6804 52.9569 53.3434 51.3828 51.6943 51.3828C50.0451 51.3828 48.7082 52.9569 48.7082 54.8987C48.7082 56.8405 50.0451 58.4146 51.6943 58.4146Z" fill="#1D1E20"/>
<path d="M62.3867 58.4146C64.0359 58.4146 65.3728 56.8405 65.3728 54.8987C65.3728 52.9569 64.0359 51.3828 62.3867 51.3828C60.7375 51.3828 59.4006 52.9569 59.4006 54.8987C59.4006 56.8405 60.7375 58.4146 62.3867 58.4146Z" fill="#1D1E20"/>
<path d="M51.0098 53.7032L48.5137 52.0391" stroke="#1D1E20" stroke-linecap="round"/>
<path d="M62.0098 53.7032L59.5137 52.0391" stroke="#1D1E20" stroke-linecap="round"/>
</svg>
