<svg width="115" height="115" viewBox="0 0 115 115" fill="none" xmlns="http://www.w3.org/2000/svg">
<mask id="mask0_1328_36098" style="mask-type:luminance" maskUnits="userSpaceOnUse" x="0" y="0" width="115" height="115">
<path d="M114.292 0H3.05176e-05V114.292H114.292V0Z" fill="white"/>
</mask>
<g mask="url(#mask0_1328_36098)">
<path d="M51.6703 58.6378C53.317 58.6378 54.6519 57.9703 54.6519 57.147C54.6519 56.3237 53.317 55.6562 51.6703 55.6562C50.0237 55.6562 48.6888 56.3237 48.6888 57.147C48.6888 57.9703 50.0237 58.6378 51.6703 58.6378Z" fill="#1D1E20"/>
<path d="M66.578 58.6378C68.2247 58.6378 69.5596 57.9703 69.5596 57.147C69.5596 56.3237 68.2247 55.6562 66.578 55.6562C64.9314 55.6562 63.5965 56.3237 63.5965 57.147C63.5965 57.9703 64.9314 58.6378 66.578 58.6378Z" fill="#1D1E20"/>
<path d="M44.7134 55.6562H54.6518" stroke="#1D1E20" stroke-linecap="round"/>
<path d="M59.6211 55.6562H69.5595" stroke="#1D1E20" stroke-linecap="round"/>
</g>
</svg>
