<svg width="115" height="115" viewBox="0 0 115 115" fill="none" xmlns="http://www.w3.org/2000/svg">
<g clip-path="url(#clip0_1328_37384)">
<mask id="mask0_1328_37384" style="mask-type:luminance" maskUnits="userSpaceOnUse" x="0" y="0" width="115" height="115">
<path d="M115 0H0V115H115V0Z" fill="white"/>
</mask>
<g mask="url(#mask0_1328_37384)">
<mask id="mask1_1328_37384" style="mask-type:alpha" maskUnits="userSpaceOnUse" x="29" y="87" width="57" height="58">
<path d="M57.3607 144.366C72.9775 144.366 85.6374 131.706 85.6374 116.089C85.6374 100.472 72.9775 87.8125 57.3607 87.8125C41.7439 87.8125 29.084 100.472 29.084 116.089C29.084 131.706 41.7439 144.366 57.3607 144.366Z" fill="#F6C8C8"/>
</mask>
<g mask="url(#mask1_1328_37384)">
<path d="M90.2395 86.8125H24.0703V114.884H90.2395V86.8125Z" fill="#F6C8C8"/>
</g>
<path d="M52.0098 81.5859H63.0098V88.6276L57.5098 94.5859L52.0098 88.6276V81.5859Z" fill="#F6C8C8"/>
<path d="M38.0098 106.586C38.0098 99.9585 43.3823 94.5859 50.0098 94.5859H64.0098C70.6372 94.5859 76.0098 99.9585 76.0098 106.586V114.586H38.0098V106.586Z" fill="#FF7D7D"/>
<path d="M44.0098 91.5859C44.0098 89.9291 45.3529 88.5859 47.0098 88.5859C47.5621 88.5859 48.0098 89.0337 48.0098 89.5859V96.5859H44.0098V91.5859Z" fill="#FF7D7D"/>
<path d="M71.0098 91.5859C71.0098 89.9291 69.6666 88.5859 68.0098 88.5859C67.4575 88.5859 67.0098 89.0337 67.0098 89.5859V97.5859H71.0098V91.5859Z" fill="#FF7D7D"/>
</g>
</g>
<defs>
<clipPath id="clip0_1328_37384">
<rect width="115" height="115" fill="white"/>
</clipPath>
</defs>
</svg>
