<svg width="115" height="115" viewBox="0 0 115 115" fill="none" xmlns="http://www.w3.org/2000/svg">
<g clip-path="url(#clip0_1328_37362)">
<mask id="mask0_1328_37362" style="mask-type:luminance" maskUnits="userSpaceOnUse" x="0" y="0" width="115" height="115">
<path d="M115 0H0V115H115V0Z" fill="white"/>
</mask>
<g mask="url(#mask0_1328_37362)">
<mask id="mask1_1328_37362" style="mask-type:alpha" maskUnits="userSpaceOnUse" x="29" y="88" width="57" height="57">
<path d="M57.3607 144.78C72.9775 144.78 85.6374 132.12 85.6374 116.503C85.6374 100.886 72.9775 88.2266 57.3607 88.2266C41.7439 88.2266 29.084 100.886 29.084 116.503C29.084 132.12 41.7439 144.78 57.3607 144.78Z" fill="#F5D566"/>
</mask>
<g mask="url(#mask1_1328_37362)">
<path d="M90.2395 87.2266H24.0703V115.298H90.2395V87.2266Z" fill="#FF7D7D"/>
</g>
<path d="M52.0098 82H63.0098V88.5C63.0098 91.5376 60.5473 94 57.5098 94C54.4722 94 52.0098 91.5376 52.0098 88.5V82Z" fill="#F6C8C8"/>
</g>
</g>
<defs>
<clipPath id="clip0_1328_37362">
<rect width="115" height="115" fill="white"/>
</clipPath>
</defs>
</svg>
