<svg width="158" height="158" viewBox="0 0 158 158" fill="none" xmlns="http://www.w3.org/2000/svg">
<g id="Group 1611">
<circle id="Ellipse 11" cx="79" cy="79" r="79" fill="#6129E9"/>
<g id="Mask group">
<mask id="mask0_676_23811" style="mask-type:alpha" maskUnits="userSpaceOnUse" x="0" y="0" width="158" height="158">
<circle id="Ellipse 11_2" cx="79" cy="79" r="79" fill="#7D32FF"/>
</mask>
<g mask="url(#mask0_676_23811)">
<g id="Group 1530">
<path id="Polygon 4" d="M18.9545 70.1221C45.6722 23.8456 112.467 23.8456 139.184 70.1221C156.497 100.109 134.856 137.593 100.23 137.593H57.909C23.2828 137.593 1.64138 100.109 18.9545 70.1221Z" fill="#192D54"/>
<circle id="Ellipse 35" cx="35.7821" cy="84.9501" r="14.5594" fill="#EBA0AA"/>
<circle id="Ellipse 36" cx="123.657" cy="85.0751" r="14.5594" fill="#EBA0AA"/>
<circle id="Ellipse 37" cx="79.004" cy="125.045" r="15.4044" fill="#F5D566"/>
<path id="Rectangle 155" d="M130.439 84.8637C130.459 85.8947 129.639 86.7465 128.608 86.7662L122.736 86.8787C121.705 86.8984 120.853 86.0786 120.834 85.0476C120.814 84.0166 121.634 83.1648 122.665 83.1451L128.536 83.0327C129.567 83.0129 130.419 83.8327 130.439 84.8637Z" fill="#D75249"/>
<path id="Rectangle 156" d="M37.3627 84.8637C37.3824 85.8947 36.5627 86.7465 35.5317 86.7662L29.6601 86.8787C28.6291 86.8984 27.7773 86.0786 27.7575 85.0476C27.7378 84.0166 28.5576 83.1648 29.5886 83.1451L35.4602 83.0327C36.4912 83.0129 37.3429 83.8327 37.3627 84.8637Z" fill="#D75249"/>
<ellipse id="Ellipse 34" cx="79.979" cy="74.2224" rx="42.5083" ry="42.1833" fill="#F6C8C8"/>
<path id="Vector 90" d="M64.51 21.3728C77.2495 14.7433 98.8034 14.7866 112.153 28.0026C118.458 34.2441 122.163 37.5573 125.543 50.7517C128.923 63.9461 118.458 106.974 118.458 106.974C118.458 94.3649 120.408 72.0708 103.574 66.2211C84.9447 63.3384 72.3024 54.5134 65.5552 45.3503C64.3883 50.6141 63.0226 56.678 50.8606 67.911C41.5009 76.5556 40.981 99.0014 45.0108 106.974C39.4427 99.7164 31.3796 82.1167 32.6613 67.911C34.2153 50.6875 37.0594 31.2064 60.4709 25.9819C61.2273 23.9768 62.5746 22.38 64.51 21.3728Z" fill="#192D54"/>
<g id="Mask group_2">
<mask id="mask1_676_23811" style="mask-type:alpha" maskUnits="userSpaceOnUse" x="41" y="121" width="76" height="76">
<circle id="Ellipse 38" cx="79.0687" cy="159.168" r="37.8285" fill="#F5D566"/>
</mask>
<g mask="url(#mask1_676_23811)">
<rect id="Rectangle 152" x="34" y="123" width="89" height="45" fill="#F5D566"/>
</g>
</g>
<circle id="Ellipse 42" cx="64.1853" cy="86.8298" r="9.29463" fill="#FFA9AA"/>
<circle id="Ellipse 43" cx="96.5544" cy="86.8298" r="9.29463" fill="#FFA9AA"/>
<path id="Rectangle 153" d="M65.6076 39.2686C66.7164 39.1504 67.711 39.9536 67.8291 41.0624L70.1615 62.9567C70.2796 64.0655 69.4765 65.0602 68.3677 65.1783C67.2589 65.2964 66.2643 64.4933 66.1461 63.3845L63.8138 41.4901C63.6956 40.3813 64.4987 39.3867 65.6076 39.2686Z" fill="#192D54"/>
<path id="Rectangle 154" d="M68.7057 39.5301C69.9458 39.1704 71.2427 39.8842 71.6023 41.1244L78.4186 64.63C78.7782 65.8701 78.0644 67.167 76.8243 67.5266C75.5841 67.8863 74.2873 67.1724 73.9276 65.9323L67.1114 42.4267C66.7517 41.1865 67.4655 39.8897 68.7057 39.5301Z" fill="#192D54"/>
<g id="Group 1527">
<ellipse id="Ellipse 39" cx="72.8287" cy="79.0261" rx="4.02984" ry="4.74481" fill="black"/>
<ellipse id="Ellipse 40" cx="87.2584" cy="79.0261" rx="4.02984" ry="4.74481" fill="black"/>
</g>
<circle id="Ellipse 41" cx="79.9792" cy="86.8933" r="3.11988" fill="#D75249"/>
<path id="Vector 91" d="M74.9226 93.4317C75.7821 93.8286 78.2795 94.4821 81.3936 93.9213C84.5078 93.3605 88.1498 89.8679 87.4764 86.1279" stroke="#9B374A" stroke-width="2.4844" stroke-linecap="round"/>
</g>
</g>
</g>
</g>
</svg>
